<?xml version="1.0" encoding="utf-8"?>
<svg viewBox="1591.515 1585.2029 288.6071 288.7159" xmlns="http://www.w3.org/2000/svg">
  <path fill-rule="evenodd" fill-opacity="1" d="M 1730.399 1618.516 C 1744.568 1616.848 1764.871 1621.598 1776.749 1626.472 C 1814.237 1641.85 1845.341 1679.972 1846.118 1724.64 C 1847.236 1788.793 1800.223 1838.005 1739.866 1840.901 C 1658.326 1844.811 1600.787 1762.161 1631.906 1687.093 C 1638.041 1672.294 1645.268 1662.839 1653.767 1653.134 C 1657.501 1648.868 1663.438 1643.939 1668.599 1640.08 C 1674.371 1635.767 1679.549 1632.86 1686.014 1629.58 C 1702.938 1620.993 1712.621 1620.609 1730.399 1618.516 Z M 1869.921 1735.814 C 1871.713 1717.281 1866.692 1694.423 1860.444 1678.822 C 1826.98 1595.229 1717.547 1563.411 1642.743 1630.255 C 1623.275 1647.655 1600.091 1683.707 1599.538 1722.551 C 1599.105 1753.087 1604.841 1779.049 1621.007 1803.075 C 1630.095 1816.584 1630.088 1815.939 1640.229 1826.435 C 1646.038 1832.449 1646.29 1832.512 1653.701 1838.082 C 1660.569 1843.25 1666.103 1846.797 1674.407 1850.876 C 1691.266 1859.163 1706.625 1863.487 1728.054 1864.832 C 1777.123 1867.914 1825.43 1841.824 1850.105 1800.58 C 1864.347 1776.762 1867.246 1763.476 1869.921 1735.814" style="fill: rgb(40, 40, 64);" transform="matrix(0.9999999999999999, 0, 0, 0.9999999999999999, 2.2737367544323206e-13, 2.2737367544323206e-13)"/>
  <path fill-rule="evenodd" fill-opacity="1" d="M 1667.906 1797.915 C 1670.149 1801.107 1676.595 1805.714 1680.524 1808.477 C 1726.496 1840.827 1792.724 1825.453 1819.54 1774.207 C 1850.545 1714.95 1812.408 1644.962 1751.106 1635.297 C 1747.888 1634.792 1743.996 1634.429 1740.58 1634.059 C 1734.442 1633.392 1735.09 1633.626 1735.193 1639.483 C 1735.336 1647.128 1735.241 1654.879 1735.241 1662.549 C 1735.241 1694.174 1733.056 1687.804 1742.296 1689.516 C 1769.841 1694.617 1786.12 1728.008 1768.624 1752.621 C 1755.713 1770.766 1731.217 1776.344 1712.969 1764.195 C 1710.745 1762.711 1708.201 1760.281 1706.446 1759.438 C 1704.291 1759.258 1680.121 1784.564 1676.837 1787.848 C 1674.558 1790.131 1668.789 1795.225 1667.906 1797.915" style="fill: rgb(40, 40, 64);" transform="matrix(0.9999999999999999, 0, 0, 0.9999999999999999, 2.2737367544323206e-13, 2.2737367544323206e-13)"/>
  <path fill-rule="evenodd" fill-opacity="1" d="M 1639.357 1723.412 C 1638.473 1725.82 1638.832 1730.749 1638.917 1733.802 C 1639.038 1738.412 1640.518 1736.957 1645.708 1736.884 C 1652.906 1736.782 1660.166 1736.877 1667.36 1736.877 C 1697.064 1736.877 1694.421 1738.991 1694.121 1732.369 C 1693.978 1729.225 1694.392 1725.56 1694.231 1722.903 C 1690.093 1721.261 1672.333 1722.254 1666.667 1722.254 L 1642.208 1722.225 C 1638.081 1722.807 1640.709 1722.126 1639.357 1723.412" style="fill: rgb(40, 40, 64);" transform="matrix(0.9999999999999999, 0, 0, 0.9999999999999999, 2.2737367544323206e-13, 2.2737367544323206e-13)"/>
</svg>